PathFileType	4	(X/Y/Z)	RBDS03\RBDS03runT45.trc
DataRate	CameraRate	NumFrames	NumMarkers	Units	OrigDataRate	OrigDataStartFrame	OrigNumFrames
150.000000	150.000000	6	33	mm	150.000000	2812	4500
Frame#	Time	L.ASIS			L.Heel.Bottom			L.Heel.Lateral			L.Heel.Top			L.Iliac.Crest			L.MT1			L.MT5			L.PSIS			L.Shank.Bottom.Lateral			L.Shank.Bottom.Medial			L.Shank.Top.Lateral			L.Shank.Top.Medial			L.Thigh.Bottom.Lateral			L.Thigh.Bottom.Medial			L.Thigh.Top.Lateral			L.Thigh.Top.Medial			R.ASIS			R.ASY			R.Heel.Bottom			R.Heel.Lateral			R.Heel.Top			R.Iliac.Crest			R.MT1			R.MT5			R.PSIS			R.Shank.Bottom.Lateral			R.Shank.Bottom.Medial			R.Shank.Top.Lateral			R.Shank.Top.Medial			R.Thigh.Bottom.Lateral			R.Thigh.Bottom.Medial			R.Thigh.Top.Lateral			R.Thigh.Top.Medial			
		X1	Y1	Z1	X2	Y2	Z2	X3	Y3	Z3	X4	Y4	Z4	X5	Y5	Z5	X6	Y6	Z6	X7	Y7	Z7	X8	Y8	Z8	X9	Y9	Z9	X10	Y10	Z10	X11	Y11	Z11	X12	Y12	Z12	X13	Y13	Z13	X14	Y14	Z14	X15	Y15	Z15	X16	Y16	Z16	X17	Y17	Z17	X18	Y18	Z18	X19	Y19	Z19	X20	Y20	Z20	X21	Y21	Z21	X22	Y22	Z22	X23	Y23	Z23	X24	Y24	Z24	X25	Y25	Z25	X26	Y26	Z26	X27	Y27	Z27	X28	Y28	Z28	X29	Y29	Z29	X30	Y30	Z30	X31	Y31	Z31	X32	Y32	Z32	X33	Y33	Z33	

2813	18.74666666666667	2466.849240079224	1053.943567820266	956.4340423293642	1773.008741397929	286.4369061222969	1008.315060329492	1796.842698772829	260.5667988133217	960.6232462110735	1821.160077547565	302.785872426442	1002.46923146477	2426.118028706268	1129.450546625156	903.3510085879556	1910.217356313964	104.4316146810495	1046.223038751736	1868.904480031033	118.7739577906116	943.8631039196744	2293.743324917364	1105.31529004239	995.6403038947624	1911.052328221934	318.70286416751	942.9982961718456	1876.360113109974	342.058085099853	978.1289284558785	1947.873413447271	388.9303851605076	931.4084885751699	1913.796356486487	412.9430722434425	965.4246471999153	2173.012489829984	679.7739766019394	929.5411034666264	2124.424013253114	716.1725776848159	970.3360944264485	2224.771925790702	774.4023387995009	907.0050734693912	2176.115447091966	810.1378394616272	943.0355947435174	2440.767761982164	1084.817784543521	1154.170903959308	-627216743.0087559	130928112.5721336	-370114873.8916228	2383.842353699127	183.0443626769993	1060.276118097262	2416.104719528549	190.640578180116	1112.884717433935	2407.19686902118	226.0513131247944	1065.420899405346	2377.242068870902	1168.796972336417	1190.876633639082	2593.727112830984	130.9129095286049	1052.351275315797	2553.57552220567	126.7467895432973	1161.165722993564	2283.871869392237	1113.389777269281	1079.80661216502	2476.75160044225	288.3083449326473	1135.48761806278	2449.793130016393	306.3605792883203	1095.273022294344	2492.837272201212	368.7791419446217	1158.156786025751	2463.74524256078	383.4409373271979	1115.519049189429	2580.398523326393	730.8911448452026	1203.43644464602	2526.655883198838	686.581512352413	1179.694557464489	2504.101418578046	809.8142533615285	1220.327965518122	2456.048276036022	769.2592336909834	1193.149126879681	
2814	18.75333333333333	2469.429451757055	1057.215951500147	957.1439566380284	1760.086441827059	305.2275113200966	1009.00306976956	1782.624594400368	278.762615430244	961.0452487814423	1808.778284778558	319.9810225654214	1002.796331080262	2429.250602705026	1133.541035343671	903.992032110515	1891.967888652464	118.1324384379946	1044.933917789768	1850.189741955302	133.8528515842338	943.1912961912238	2296.574205005689	1110.106229498948	994.4920294148856	1898.613147307768	332.741087882982	942.7279243547582	1864.606429927774	356.9288893841788	977.931923743944	1937.198600976388	401.9178598818509	931.1659967461982	1903.724345201723	426.8015204211754	965.1207952762409	2170.149043765941	686.859010122013	929.0528706518653	2122.041452636002	724.5079166646465	969.2371592835341	2224.003489202823	780.2775696308963	906.3079792889213	2175.771060973913	817.3362290325467	941.5498776484818	2441.597168235262	1087.215816558911	1154.497930149118	-627888504.8729506	131070697.373844	-370510564.3231407	2415.767953504784	163.2850095894559	1056.779954647319	2446.035562765377	173.3651828417138	1110.139032282391	2435.293803520441	208.0234558107981	1062.576647376045	2378.31119734603	1172.387054032764	1191.161631697041	2629.201911740485	128.7900354210766	1053.549637495894	2587.153463474158	121.0116048776149	1161.433992586426	2285.866322772204	1117.47631294853	1078.788646548999	2497.8676912746	276.3405778924518	1133.665708064375	2470.837516445214	292.3897988337569	1092.581268060959	2507.326822430344	357.7066272951145	1156.475357499212	2478.621244963729	370.2476122584353	1112.857379802346	2575.583351878952	728.7643513730224	1202.667665176885	2521.329723986603	685.128395120549	1178.838155869717	2500.412515795726	808.8720864908013	1219.137453405076	2451.838387776305	768.8548170169387	1191.869465978628	
2815	18.76	2471.530195240382	1060.181760165763	957.753015952835	1747.02433083451	324.0349994471568	1010.372784623267	1768.204895216061	297.1844155563463	962.1039710953115	1796.062800701759	337.3348183392613	1003.741902991113	2431.861149066051	1137.289915609369	904.513329463358	1873.835732389835	132.8255709610731	1044.057212740425	1831.465473420766	149.9681352219682	943.0166879446519	2299.062655495948	1114.435572239358	993.4913368182911	1886.132144665675	347.0057304775045	942.899384046713	1853.095031564181	372.2767108740375	978.2288910676614	1926.91620630758	414.7874694494192	931.2231122461086	1894.319589155467	440.8020657849999	965.1429589977331	2168.75058672827	692.4640850094376	928.2074292827082	2120.936023371809	731.0493762507934	967.8388983449018	2224.149140091978	784.9351741151213	905.3453982413936	2176.077889110178	823.0209375284105	939.7188158507258	2442.293677704207	1089.067348412203	1154.882172341686	-628560746.1961383	131213385.6224717	-370906536.6740081	2447.56894610949	145.5917573037653	1053.728780796493	2475.736930780144	157.8717386553131	1107.782102361478	2463.150832425319	191.709593759723	1060.133175275248	2379.179326653184	1175.050875327418	1191.590149853586	2662.953683494165	128.8445656811826	1055.029606629421	2619.482869122522	117.1338973232162	1161.979775243261	2287.60130869463	1120.933322657754	1077.948442609923	2518.2455550715	265.440959828885	1132.026925657181	2491.356482308146	279.5654243081208	1090.096069958788	2521.0677580297	347.1933946288104	1154.864890360292	2492.982324375148	357.7295656876495	1110.269105394072	2569.788324437281	725.3581135318628	1202.115606384122	2515.112950104302	682.7627118294668	1177.62906007065	2495.942449463944	806.7303956110388	1218.328795995444	2446.887482524301	767.5936348173337	1190.542284768954	
2816	18.76666666666667	2473.205252367444	1062.866894256668	958.241135165612	1734.104793687415	343.028411813916	1012.259438392475	1753.83314238553	315.8925471681957	963.6561326161604	1783.349981298961	354.9135788618019	1005.132353958836	2433.986992952588	1140.707416975382	904.9094148283856	1855.774396484375	148.3113184557767	1043.624820505154	1812.728518530361	166.9365753126192	943.3127664678036	2301.189052457908	1118.244913342506	992.6478707169283	1873.791916833237	361.4526663191995	943.40916423668	1842.009228287099	387.9844873165542	978.9429889310504	1917.127234437462	427.5199763383898	931.5145434299552	1885.689528894568	454.8466600885193	965.4644493661184	2168.732690873356	696.5425066399876	927.0453774349353	2121.03692528273	735.7313554683004	966.2387619508438	2225.124395545764	788.363359450052	904.1659811401321	2176.960241788609	827.1516798547153	937.6569796469278	2442.862746492133	1090.405269573358	1155.279947695771	-629233467.1493558	131356177.3555166	-371302791.0446185	2478.784560637107	130.1172391687375	1051.112584312723	2504.802024198606	144.2853936638772	1105.801832752549	2490.363361147143	177.2548079691393	1058.090009155296	2379.81719451509	1176.796185202323	1192.086073752716	2694.572551271907	131.0241369866354	1056.706678226594	2650.197748849147	115.0978124367006	1162.731054692732	2289.080257816492	1123.742333605153	1077.287597505286	2537.62778760098	255.7213654373376	1130.571332769943	2511.045998228167	268.0036211421818	1087.843521481867	2533.884757941731	337.3834937381579	1153.319974170242	2506.591622681574	346.0344835611297	1107.778476412429	2563.079775434987	720.8164663574578	1201.73093984062	2508.089343920887	679.6328871786081	1176.031886607334	2490.764895749017	803.5210463882942	1217.867040341662	2441.285324752182	765.6244470697527	1189.143565300888	
2817	18.77333333333333	2474.518050820277	1065.293833382661	958.5806454371487	1721.706720409862	362.3711948779705	1014.462892729002	1739.862499463354	334.957254376819	965.5264750445574	1771.063617747372	372.7753987145271	1006.775481842103	2435.636690955669	1143.799635985452	905.1833868842506	1837.804156219185	164.4199433007738	1043.623520029916	1794.072038800856	184.6044335593341	944.0136509802437	2302.937802881115	1121.473804972091	991.9732798289486	1861.852465981063	376.040278777792	944.1476682061797	1831.596017990341	403.9264817191929	979.9813103446646	1907.99585464101	440.1032431650931	931.970784532885	1877.991324781926	468.8329293582083	966.0456538516413	2169.974164695986	699.1066708615346	925.62556255866	2122.255765990804	738.5574746410739	964.554023301528	2226.824422871814	790.5916688313476	902.8319929395743	2178.352278292871	829.740245025103	935.5127551318848	2443.312984256856	1091.258470084683	1155.635877854965	-629906667.9036398	131499072.6104788	-371699327.5353656	2508.921504771956	116.934835312796	1048.906712069455	2532.789879513603	132.6711143884547	1104.17406293676	2516.500005876532	164.7374810475701	1056.430980545958	2380.231584818064	1177.665100363349	1192.571398599058	2723.66512836187	135.1799198334993	1058.490050560153	2678.927285397649	114.8266896603027	1163.609992876121	2290.311581011517	1125.893607195203	1076.80513084695	2555.763636605122	247.2574857680178	1129.299830164629	2529.598219500544	257.7782064999893	1085.850282722386	2545.622335386976	328.3995194573786	1151.84509188939	2519.222543696782	335.2805715076107	1105.421517674551	2555.565558462195	715.3257800973998	1201.442008520368	2500.376247075713	675.9023537523183	1174.036840140047	2484.984913251195	799.4179799397541	1217.674416032446	2435.147303061514	763.1092645239324	1187.647341604156	
2818	18.78	2475.533027337775	1067.475582849524	958.7392859324783	1710.260441317875	382.1912783716069	1016.775692492058	1726.710205918233	354.4395971240408	967.5318740057694	1759.665548149327	390.954155533361	1008.486404889466	2436.796105489175	1146.564030611861	905.3426487704902	1820.012780959272	181.0206493175418	1043.997568705137	1775.679474874938	202.858008185637	945.0213422818159	2304.297591071334	1124.059681993433	991.477946419954	1850.620466782851	390.7286753182644	945.011310413281	1822.138612879893	419.975987201542	981.2472549783512	1899.72955681669	452.5259403505898	932.5253743861709	1871.415216069857	482.6573202171076	966.8402695241649	2172.327370875147	700.2192729416322	924.0162688221394	2124.493667219209	739.5925820151286	962.9072855077216	2229.132724352989	791.6818634731541	901.4114448212356	2180.202203709174	830.8433886930663	933.4518700592838	2443.653106106315	1091.653283318363	1155.890286296752	-630580348.6300265	131642071.4248581	-372096146.2466427	2537.46607454735	106.0171713212738	1047.078895525842	2559.23841044595	123.0140680150113	1102.867445501409	2541.113301848443	154.1506707378089	1055.129526816019	2380.462111610618	1177.730278182857	1192.977018097318	2749.874414382743	141.0523588565791	1060.280460189687	2705.313225965453	116.1659158832638	1164.532952488328	2291.303763088133	1127.382222410834	1076.496001468305	2572.415318048614	240.074403287304	1128.214546138918	2546.710636547108	248.908896389619	1084.143174721994	2556.148527404203	320.3293570147336	1150.455403266935	2530.665843899973	325.5464895088298	1103.245804890764	2547.391403998001	709.1049263455744	1201.163814775872	2492.120148458146	671.7409647497936	1171.660676005218	2478.732937602489	794.6266839086171	1217.639424620607	2428.608306309236	760.2118264314907	1186.027636484028	
